<!DOCTYPE svg PUBLIC "-//W3C//DTD SVG 1.1//EN" "http://www.w3.org/Graphics/SVG/1.1/DTD/svg11.dtd">
<!-- Uploaded to: SVG Repo, www.svgrepo.com, Transformed by: SVG Repo Mixer Tools -->
<svg width="196px" height="196px" viewBox="0 0 20 20" xmlns="http://www.w3.org/2000/svg" fill="#999999" stroke="#999999" stroke-width="0.0002">
<g id="SVGRepo_bgCarrier" stroke-width="0"/>
<g id="SVGRepo_tracerCarrier" stroke-linecap="round" stroke-linejoin="round"/>
<g id="SVGRepo_iconCarrier"> <rect x="0" fill="none" width="20" height="20"/> <g> <path d="M3 3h14c.6 0 1 .4 1 1v10c0 .6-.4 1-1 1H3c-.6 0-1-.4-1-1V4c0-.6.4-1 1-1zm13 2H4v8h12V5zm-3 1H5v4zm6 11v-1H1v1c0 .6.5 1 1.1 1h15.8c.6 0 1.1-.4 1.1-1z"/> </g> </g>
</svg>